<svg width="54" height="55" viewBox="0 0 54 55" fill="none" xmlns="http://www.w3.org/2000/svg">
<rect width="54" height="55" fill="#0A0908"/>
<rect x="0.5" y="0.5" width="53" height="54" rx="26.5" stroke="white"/>
<path d="M31.5322 36.584C29.7228 38.8647 28.2142 41.3668 27.043 44.0293L26.8027 44.5879L26.7979 44.6006C26.7616 44.6969 26.7225 44.7921 26.6846 44.8877C26.6572 44.1974 26.6479 43.5064 26.6621 42.8154H26.6631V39.3467L29.6719 37.6279C30.3602 37.2336 31.0031 36.8743 31.5322 36.584Z" fill="white" stroke="white" stroke-width="0.75"/>
<path d="M22.7861 25.6387C23.0906 25.6362 23.3879 25.6393 23.6533 25.6455C23.1876 25.9383 22.7129 26.217 22.2275 26.4766L22.2207 26.4814L19.8916 27.7969L19.7012 27.9053V30.4531L17.2588 33.8213C16.2019 35.2778 15.549 36.149 15.0928 36.6943C14.639 37.2367 14.4023 37.4283 14.1826 37.5508C13.8403 37.7399 13.4577 37.8454 13.0664 37.8584C12.6753 37.8713 12.2866 37.7919 11.9326 37.626V37.625L11.9219 37.6211L11.6895 37.5059C11.4633 37.3798 11.2569 37.2204 11.0781 37.0322C10.8397 36.7812 10.6544 36.4842 10.5342 36.1602C10.414 35.8363 10.3609 35.4913 10.3779 35.1465C10.395 34.8024 10.4818 34.4653 10.6328 34.1553C10.727 33.9663 10.9877 33.656 11.7549 32.9678C12.5066 32.2934 13.7003 31.2927 15.5957 29.7285L15.5947 29.7275C16.888 28.6608 18.1161 27.6769 19.0449 26.9502C19.5096 26.5866 19.8986 26.2889 20.1826 26.0781C20.3249 25.9725 20.4386 25.89 20.5215 25.833C20.5628 25.8046 20.5939 25.7846 20.6152 25.7715C20.6391 25.7568 20.6389 25.7582 20.624 25.7646C20.6319 25.7625 20.6491 25.7594 20.6777 25.7539C20.7198 25.7458 20.775 25.7369 20.8438 25.7285C20.9816 25.7117 21.1599 25.6964 21.3662 25.6836C21.7783 25.6581 22.2886 25.6427 22.7861 25.6387Z" fill="white" stroke="white" stroke-width="0.75"/>
<path d="M33.0303 27.9014L32.8408 27.793L30.5283 26.4775L30.5176 26.4717L29.9287 26.1494C29.6505 25.9912 29.3772 25.8247 29.1064 25.6543C29.3517 25.6488 29.6232 25.6449 29.9014 25.6455C30.3855 25.6465 30.8844 25.6565 31.292 25.6748C31.4959 25.684 31.6743 25.6953 31.8154 25.708C31.9409 25.7193 32.0195 25.7313 32.0586 25.7393C32.0764 25.7497 32.1025 25.7667 32.1377 25.79C32.2171 25.8428 32.3274 25.9209 32.4668 26.0234C32.7451 26.2281 33.1272 26.52 33.5859 26.8789C34.5031 27.5965 35.7192 28.5743 37.0137 29.6318H37.0146C38.6536 30.9694 39.8557 31.9793 40.6758 32.708C41.086 33.0725 41.397 33.3627 41.6172 33.5869C41.8482 33.8222 41.9502 33.9553 41.9785 34.0098L41.9824 34.0176C42.1967 34.4084 42.3086 34.8467 42.3086 35.292C42.3086 35.7324 42.1981 36.1652 41.9883 36.5527C41.6473 37.1008 41.1231 37.5115 40.5068 37.71C39.8919 37.9079 39.2266 37.8821 38.6289 37.6377C38.4262 37.5425 38.3166 37.4929 38.2021 37.4121C38.0899 37.3328 37.9608 37.2136 37.7568 36.9727C37.3402 36.4804 36.6762 35.5575 35.2881 33.6299V33.6289L33.0303 30.5068V27.9014Z" fill="white" stroke="white" stroke-width="0.75"/>
<path d="M28.4956 27.5244V27.5234C29.1372 27.8941 29.7498 28.2572 30.2222 28.542C30.6814 28.8188 30.9862 29.0104 31.0698 29.0693C31.0826 29.0813 31.0896 29.0909 31.0991 29.1172C31.1174 29.168 31.1391 29.2674 31.1538 29.4717C31.1831 29.8796 31.179 30.5828 31.1646 31.8809L31.1226 34.5303L28.9771 35.7852C27.8443 36.448 26.8124 37.0462 26.5103 37.2168C26.4995 37.214 26.4863 37.2121 26.4722 37.208C26.3677 37.1775 26.2077 37.1185 25.9839 37.0195C25.6495 36.8717 25.1908 36.6435 24.5913 36.3145L23.9448 35.9512L21.5415 34.5527V29.0586L23.9448 27.6797L23.9468 27.6787L26.3374 26.2871L28.4956 27.5244ZM26.0933 27.5674C26.0427 27.578 25.9894 27.5954 25.9419 27.6123C25.8429 27.6476 25.7161 27.7011 25.5767 27.7637C25.2952 27.8899 24.9327 28.0663 24.5767 28.249C24.2205 28.4318 23.8644 28.6242 23.5952 28.7803C23.4618 28.8576 23.343 28.9292 23.2554 28.9893C23.2129 29.0183 23.1681 29.0515 23.1304 29.085C23.1123 29.101 23.0846 29.1263 23.0591 29.1592C23.0467 29.1752 22.9731 29.2679 22.9731 29.4062V29.5762L23.1011 29.6885C23.4501 29.9938 23.819 30.2755 24.2056 30.5312L24.5981 30.7783L26.0112 31.7129L26.5747 32.0859L26.5933 31.4102L26.6382 29.7061L26.6372 29.7051C26.6704 29.104 26.6581 28.5014 26.5991 27.9023L26.5786 27.6953L26.3931 27.6025L26.3843 27.5986H26.3833C26.2976 27.5556 26.2196 27.5558 26.2036 27.5557C26.1574 27.5554 26.1171 27.5624 26.0933 27.5674Z" fill="white" stroke="white" stroke-width="0.75"/>
<path d="M26.7168 9.38184C26.8311 9.39925 26.9959 9.44934 27.2832 9.53516C27.8753 9.71243 28.3194 10.0081 28.8154 10.7334C29.2649 11.3908 29.7457 12.3841 30.3896 13.9316L30.6758 14.6299C31.1591 15.832 31.9126 17.5074 32.3467 18.3975L32.3477 18.3984L33.0176 19.7637L32.2002 20.8047L31.2373 22.0303L30.8506 22.5225L31.4658 22.6318L31.9951 22.7256V22.7246C32.3211 22.793 33.5825 22.9655 34.8242 23.1172C35.4547 23.1942 36.0187 23.2781 36.4219 23.3506C36.5047 23.3655 36.5798 23.3792 36.6465 23.3926C36.6051 23.4741 36.5608 23.5541 36.5107 23.6309L36.5059 23.6387C36.4352 23.7526 36.3739 23.8556 36.3271 23.9473C36.2818 24.0363 36.2392 24.1365 36.2197 24.2422C36.1983 24.3588 36.2056 24.4846 36.2637 24.6074C36.3096 24.7045 36.3776 24.7754 36.4375 24.8281V24.8291C36.5752 24.9663 38.0855 26.2684 39.7803 27.71C40.6311 28.4337 41.4131 29.1165 41.9834 29.627C42.1342 29.7619 42.2679 29.8863 42.3857 29.9941C42.0359 30.0079 41.5736 30.0445 41.2236 30.084L41.2207 30.085L40.6055 30.1592L37.2402 27.3682L37.2393 27.3672L35.8311 26.2256C35.3829 25.8655 34.9634 25.5312 34.5938 25.2412C34.2242 24.9512 33.9029 24.7036 33.6543 24.5176C33.4162 24.3393 33.2209 24.1989 33.1152 24.1406L33.1045 24.1357L32.874 24.0303C32.6397 23.9382 32.3805 23.8835 31.9707 23.8506C31.444 23.8083 30.6388 23.7998 29.2686 23.7998H26.374L25.8994 23.1123L25.8926 23.1025L25.6865 22.8301C24.6374 21.4792 23.3342 20.3429 21.8496 19.4854L21.834 19.4766L21.8184 19.4688L21.0723 19.1172C21.0389 19.101 21.0079 19.0847 20.9785 19.0703C21.0304 18.7986 21.0935 18.5291 21.168 18.2627L21.2734 17.9102L21.2764 17.8984C21.6794 16.4924 22.1785 15.3548 22.7275 14.5273C23.2806 13.6938 23.8598 13.2124 24.4082 13.0459L24.4189 13.042L24.4287 13.0381C24.5917 12.9777 24.7657 12.9508 24.9395 12.959C25.1132 12.9672 25.2839 13.0106 25.4404 13.0859L25.457 13.0938L25.4746 13.1006L26.1592 13.3496L26.6621 13.5332V11.0029C26.6621 10.4398 26.6607 10.0385 26.6748 9.74805C26.6818 9.60392 26.6923 9.49951 26.7061 9.42383C26.709 9.40745 26.714 9.39377 26.7168 9.38184ZM31.7217 19.1221C31.5693 19.0873 31.4311 19.1281 31.3408 19.1621C31.2445 19.1984 31.1348 19.2534 31.0186 19.3154L31.0098 19.3213C29.91 19.9471 28.89 20.7029 27.9727 21.5732L27.9678 21.5791L27.9619 21.584C27.7741 21.7774 27.6298 21.9353 27.5381 22.0508C27.4962 22.1035 27.4464 22.1707 27.4141 22.2393C27.4016 22.2657 27.3641 22.3472 27.3701 22.4521C27.3737 22.5141 27.3936 22.5985 27.4561 22.6758C27.5192 22.7538 27.5991 22.7922 27.6631 22.8086C27.7704 22.836 27.8621 22.8105 27.8896 22.8027C27.931 22.7911 27.969 22.7747 27.999 22.7607C28.0603 22.7321 28.1304 22.692 28.2041 22.6465C28.3375 22.5641 28.5115 22.4443 28.7256 22.292L28.792 22.25C29.4443 21.8265 30.1242 21.4465 30.8271 21.1133H30.8291C31.1498 20.9595 31.4002 20.8369 31.5908 20.7363C31.7758 20.6387 31.9306 20.5476 32.042 20.4521C32.1612 20.3499 32.2748 20.2048 32.2842 20C32.2917 19.8342 32.2225 19.6874 32.1885 19.6133C32.1532 19.5365 32.1087 19.4393 32.0557 19.3613C31.9968 19.2748 31.8938 19.1614 31.7217 19.1221ZM23.3408 14.8682L23.4521 15.6572L23.4531 15.6621C23.5403 16.2249 23.7378 16.7642 24.0342 17.249L24.167 17.4531C24.4628 17.9106 24.6958 18.4053 24.8613 18.9238C24.9915 19.4548 25.2506 19.8839 25.6895 20.0869C25.9749 20.2189 26.289 20.2314 26.6133 20.1631V20.2021L27.1211 20.0098C27.2885 19.9464 27.436 19.8389 27.5469 19.6982C27.6499 19.5674 27.7153 19.412 27.7422 19.248L27.7432 19.249C27.9144 18.5052 28.237 17.8033 28.6895 17.1875L28.6943 17.1807C29.005 16.7354 29.1919 16.2162 29.2383 15.6758L29.2393 15.6768L29.333 14.8594L29.3818 14.4414H23.2812L23.3408 14.8682Z" fill="white" stroke="white" stroke-width="0.75"/>
</svg>
