<svg width="1241" height="184" viewBox="0 0 1241 184" fill="none" xmlns="http://www.w3.org/2000/svg">
<path d="M1145.69 96.629L1177.38 1.4209L1209.06 1.4209L1240.75 96.629V102.313H1217.16L1210.77 81.282L1175.67 81.282L1169.28 102.313H1145.69V96.629ZM1204.23 59.9668L1193.15 23.7309L1182.21 59.9668H1204.23Z" fill="white"/>
<path d="M1095.89 74.0349C1096.93 76.4979 1098.26 78.2979 1099.87 79.4347C1101.48 80.4768 1103.57 80.9978 1106.12 80.9978C1112.94 80.9978 1116.35 77.3506 1116.35 70.056V23.4467L1089.36 23.4467V1.4209L1139.8 1.4209V69.9139C1139.8 75.0296 1139 79.6715 1137.39 83.8399C1135.78 88.0082 1133.5 91.5607 1130.56 94.4975C1127.63 97.4343 1124.03 99.7079 1119.77 101.318C1115.6 102.929 1110.95 103.734 1105.84 103.734C1097.41 103.734 1090.26 101.65 1084.38 97.4816C1078.6 93.2186 1074.77 87.2977 1072.87 79.7189V74.0349H1095.89Z" fill="white"/>
<path d="M1009.13 1.4209L1066.68 1.4209V23.1625L1049.63 23.1625V80.5715L1066.68 80.5715V102.313L1009.13 102.313V80.5715H1026.18V23.1625L1009.13 23.1625V1.4209Z" fill="white"/>
<path d="M908.25 96.629L939.938 1.4209L971.627 1.4209L1003.32 96.629V102.313H979.727L973.332 81.282L938.233 81.282L931.838 102.313H908.25V96.629ZM966.795 59.9668L955.711 23.7309L944.77 59.9668H966.795Z" fill="white"/>
<path d="M814.448 1.4209L842.016 1.4209L877.115 63.8035V1.4209L900.278 1.4209V102.313H872.426L837.611 40.0726V102.313H814.448V1.4209Z" fill="white"/>
<path d="M694.827 1.4209L765.025 1.4209V23.4467L718.274 23.4467V40.641L761.615 40.641V62.6667L718.274 62.6667V102.313H694.827V1.4209Z" fill="white"/>
<path d="M632.531 103.734C624.952 103.734 618.037 102.503 611.784 100.04C605.532 97.4817 600.132 93.9292 595.585 89.3819C591.132 84.8347 587.674 79.3875 585.211 73.0403C582.748 66.5983 581.517 59.5406 581.517 51.8671C581.517 44.1936 582.748 37.1833 585.211 30.8361C587.769 24.4888 591.274 19.0416 595.727 14.4944C600.274 9.94712 605.674 6.39458 611.926 3.83675C618.179 1.27892 625.094 0 632.673 0C640.252 0 647.168 1.27892 653.42 3.83675C659.673 6.39458 665.025 9.94712 669.478 14.4944C673.93 19.0416 677.388 24.4888 679.851 30.8361C682.409 37.1833 683.688 44.1936 683.688 51.8671C683.688 59.5406 682.409 66.5509 679.851 72.8981C677.388 79.2454 673.883 84.74 669.335 89.3819C664.883 93.9292 659.53 97.4817 653.278 100.04C647.025 102.503 640.11 103.734 632.531 103.734ZM605.674 51.8671C605.674 56.1302 606.337 60.0616 607.663 63.6615C608.99 67.1667 610.837 70.2456 613.205 72.8981C615.574 75.456 618.416 77.4454 621.731 78.8664C625.047 80.2874 628.694 80.9979 632.673 80.9979C636.652 80.9979 640.252 80.2874 643.473 78.8664C646.789 77.4454 649.631 75.456 651.999 72.8981C654.367 70.2456 656.215 67.1667 657.541 63.6615C658.867 60.0616 659.53 56.1302 659.53 51.8671C659.53 47.6041 658.867 43.7199 657.541 40.2148C656.215 36.6149 654.367 33.536 651.999 30.9782C649.631 28.3256 646.789 26.2888 643.473 24.8678C640.252 23.4468 636.652 22.7363 632.673 22.7363C628.694 22.7363 625.047 23.4941 621.731 25.0099C618.51 26.4309 615.668 28.4203 613.205 30.9782C610.837 33.536 608.99 36.6149 607.663 40.2148C606.337 43.7199 605.674 47.6041 605.674 51.8671Z" fill="white"/>
<path d="M460.304 1.4209L532.776 1.4209V23.4467L483.751 23.4467V40.2147L528.655 40.2147V61.5299L483.751 61.5299V80.2873L532.776 80.2873V102.313L460.304 102.313V1.4209Z" fill="white"/>
<path d="M406.032 103.734C399.875 103.734 394.238 102.787 389.122 100.892C384.007 98.9974 379.601 96.3448 375.907 92.9344C372.307 89.5239 369.465 85.4503 367.381 80.7136C365.391 75.8822 364.396 70.577 364.396 64.7982V1.4209L387.843 1.4209V63.093C387.843 75.0296 393.764 80.9978 405.606 80.9978C417.448 80.9978 423.369 75.0296 423.369 63.093V1.4209L446.815 1.4209V64.7982C446.815 70.577 445.821 75.8822 443.831 80.7136C441.937 85.4503 439.189 89.5239 435.589 92.9344C432.084 96.3448 427.821 98.9974 422.8 100.892C417.779 102.787 412.19 103.734 406.032 103.734Z" fill="white"/>
<path d="M306.726 49.4514L350.92 49.4514V102.313H329.605V87.6767C326.668 92.7924 322.642 96.7712 317.526 99.6133C312.505 102.361 306.584 103.734 299.763 103.734C293.227 103.734 287.164 102.455 281.574 99.8975C276.08 97.3396 271.296 93.7871 267.222 89.2398C263.243 84.5979 260.117 79.1033 257.843 72.7561C255.57 66.4088 254.433 59.4932 254.433 52.0092C254.433 44.241 255.617 37.1833 257.986 30.8361C260.449 24.3941 263.859 18.8995 268.217 14.3523C272.669 9.80501 277.927 6.29984 283.99 3.83675C290.148 1.27892 296.969 0 304.453 0C310.042 0 315.252 0.710508 320.084 2.13152C325.01 3.55254 329.415 5.58933 333.299 8.24189C337.184 10.8945 340.499 14.1154 343.247 17.9048C345.994 21.5995 348.031 25.8151 349.357 30.5519V36.2359H326.336C324.442 31.9729 321.552 28.6572 317.668 26.2888C313.879 23.9204 309.474 22.7363 304.453 22.7363C300.663 22.7363 297.158 23.4468 293.937 24.8678C290.811 26.2888 288.111 28.3256 285.837 30.9782C283.564 33.536 281.764 36.6149 280.438 40.2148C279.206 43.8147 278.59 47.7935 278.59 52.1513C278.59 56.5091 279.206 60.5353 280.438 64.2299C281.764 67.8299 283.564 70.9561 285.837 73.6087C288.206 76.1665 291 78.1559 294.221 79.5769C297.537 80.9979 301.137 81.7085 305.021 81.7085C307.484 81.7085 309.9 81.4242 312.268 80.8558C314.637 80.2874 316.816 79.5296 318.805 78.5822C320.794 77.6349 322.547 76.4981 324.063 75.1718C325.579 73.7508 326.715 72.2824 327.473 70.7666H306.726V49.4514Z" fill="white"/>
<path d="M157.359 96.629L189.048 1.4209L220.736 1.4209L252.425 96.629V102.313H228.836L222.442 81.282L187.342 81.282L180.948 102.313H157.359V96.629ZM215.905 59.9668L204.821 23.7309L193.879 59.9668H215.905Z" fill="white"/>
<path d="M77.5731 1.4209L150.045 1.4209V23.4467L101.02 23.4467V40.2147L145.924 40.2147V61.5299L101.02 61.5299V80.2873L150.045 80.2873V102.313L77.5731 102.313L77.5731 1.4209Z" fill="white"/>
<path d="M0 1.4209L23.4468 1.4209L23.4468 80.2873L66.9299 80.2873V102.313L0 102.313L0 1.4209Z" fill="white"/>
<path d="M34 125.285H89.7875H530.74L620 181.285L709.26 125.285H1147.36H1207.13" stroke="white" stroke-width="3"/>
<path d="M89.7876 125.285L113.697 140.285H591.31L620 158.285L648.691 140.285H1123.45L1147.36 125.285" stroke="white" stroke-width="2"/>
</svg>
